<?xml version="1.0" encoding="utf-8"?>
<!-- Generator: Adobe Illustrator 20.0.0, SVG Export Plug-In . SVG Version: 6.00 Build 0)  -->
<svg version="1.1" id="Layer_1" xmlns="http://www.w3.org/2000/svg" xmlns:xlink="http://www.w3.org/1999/xlink" x="0px" y="0px"
	 viewBox="0 0 700 700" style="enable-background:new 0 0 700 700;" xml:space="preserve">
<style type="text/css">
	.st0{fill:#FFFFFF;}
</style>
<g>
	<path class="st0" d="M172.8,227.7c0,6.6-1.4,12.6-4.1,18c-2.8,5.3-6.7,9.9-11.7,13.6c-5.1,3.7-11.2,6.6-18.3,8.7
		c-7.1,2-15.1,3-23.8,3c-1.8,0-4,0-6.5-0.1c-2.6,0-5.3-0.1-8.2-0.2c-2.9-0.1-5.9-0.2-9.1-0.2c-3.1-0.1-6.2-0.2-9.2-0.4
		c-7.1-0.2-14.5-0.5-22.3-0.8h-9.1v-6.2c5.5-1.1,9.8-2.3,12.8-3.6c3-1.3,4.5-2.5,4.5-3.6V131.1c-3.1,0.4-6.1,0.8-9,1.2
		c-2.9,0.4-5.7,0.8-8.3,1.3l-1.3-8.1c3.3-0.9,7.2-1.7,11.6-2.5c4.4-0.8,9.1-1.6,14-2.2c4.9-0.7,9.9-1.2,15-1.6
		c5.1-0.4,9.9-0.6,14.4-0.6c8.5,0,16.2,0.7,23,2.2c6.9,1.4,12.7,3.5,17.4,6.3c4.7,2.7,8.4,6,10.9,9.9c2.6,3.9,3.8,8.3,3.8,13.2
		c0,8.4-2.2,15.6-6.5,21.6c-4.3,6-10.4,10.4-18.2,13.1c5.4,0.9,10.5,2.7,15.1,5.3c4.7,2.6,8.7,5.8,12.1,9.5c3.4,3.8,6.1,8.1,8,12.9
		C171.9,217.3,172.8,222.4,172.8,227.7z M97.1,129.1c-1,0-2,0-3,0.1c-1,0-2.1,0.1-3.2,0.1V184h3.5c8.8,0,16-0.8,21.5-2.5
		c5.5-1.7,9.8-3.9,12.8-6.5c3-2.7,5.1-5.7,6.1-9.1c1.1-3.4,1.6-6.7,1.6-10.1c0-3.9-0.6-7.5-1.9-10.8c-1.3-3.3-3.5-6.1-6.5-8.4
		c-3-2.3-7.1-4.2-12.1-5.5C110.9,129.8,104.6,129.1,97.1,129.1z M109.7,193.8c-3.9,0-7.3,0.2-10.3,0.5c-3,0.4-5.8,0.7-8.6,1.1v60.8
		c0,0.5,0.3,1.1,1,1.6c1.3,0.5,2.8,0.9,4.4,1.2c1.6,0.3,3.3,0.5,5.1,0.7c1.7,0.2,3.5,0.3,5.2,0.3c1.7,0.1,3.4,0.1,5,0.1
		c5.8,0,11.1-0.7,15.7-2.1c4.6-1.4,8.5-3.4,11.7-5.9c3.2-2.5,5.7-5.6,7.4-9.2c1.7-3.6,2.6-7.6,2.6-11.9c0-4.3-0.7-8.7-2.1-13.1
		c-1.4-4.4-3.7-8.5-6.9-12c-3.2-3.6-7.2-6.5-12.2-8.8C122.8,194.9,116.8,193.8,109.7,193.8z"/>
	<path class="st0" d="M257.8,161.6c0.7,0.5,1,2,0.9,4.6c-0.2,2.6-0.6,5.6-1.3,9.1c-0.7,3.4-1.6,6.9-2.6,10.4c-1,3.5-2.1,6.3-3,8.4
		h-6.4c-0.9-6.3-2.5-11-4.9-14.2c-2.4-3.1-5.2-4.7-8.6-4.7c-1.7,0-3.7,0.6-5.9,1.8c-2.2,1.2-4.6,3.1-7,5.7c-2.4,2.6-4.8,6-7.2,10.2
		c-2.4,4.2-4.6,9.4-6.8,15.6V256c0,1.2,1.6,2.4,4.7,3.6c3.2,1.3,8.6,2.4,16.2,3.5v6.2h-59.5v-6.2c5.4-1.2,9.5-2.3,12.3-3.4
		c2.9-1.1,4.3-2.4,4.3-3.7v-66.1c0-2.6-0.1-4.7-0.2-6.5c-0.2-1.8-0.4-3.2-0.6-4.3c-0.3-1.1-0.6-1.9-0.9-2.6c-0.4-0.6-0.7-1.1-1-1.5
		c-0.6-0.5-1.2-1-1.8-1.3c-0.6-0.4-1.5-0.6-2.6-0.9c-1.1-0.2-2.3-0.4-3.8-0.5c-1.5-0.1-3.4-0.3-5.7-0.4v-5.8
		c3.2-0.6,6.3-1.2,9.1-1.9c2.8-0.6,5.6-1.3,8.2-2c2.6-0.7,5.1-1.5,7.6-2.3c2.5-0.8,4.9-1.8,7.4-2.9l4.5,4.3l1.6,23.4
		c2.2-3.9,4.6-7.5,7.2-10.9c2.6-3.4,5.4-6.3,8.4-8.8c3-2.5,6.1-4.5,9.4-5.9c3.3-1.4,6.7-2.2,10.1-2.2c2.8,0,5.8,0.3,8.9,1.1
		C251.7,158.8,254.8,160,257.8,161.6z"/>
	<path class="st0" d="M257.8,269.4v-6.2c5.5-1.1,9.7-2.3,12.5-3.6c2.8-1.3,4.2-2.5,4.2-3.6v-64.2c0-4-0.1-7.2-0.2-9.6
		c-0.1-2.5-0.7-4.4-1.7-5.7c-1-1.4-2.7-2.4-4.9-3c-2.3-0.6-5.5-1.1-9.8-1.5v-5.8c5.8-0.9,11.6-2.2,17.4-3.7
		c5.9-1.6,11.1-3.3,15.7-5.3h5.4v99c0,0.9,1.3,2.1,4,3.5c2.6,1.4,6.9,2.6,12.8,3.7v6.2H257.8z M300.4,121.9c0,2.3-0.4,4.5-1.3,6.6
		c-0.9,2-2,3.8-3.5,5.3c-1.5,1.5-3.2,2.6-5.2,3.5c-2,0.9-4.1,1.3-6.4,1.3c-3.9,0-6.9-1-9.1-3c-2.2-2-3.2-4.9-3.2-8.8
		c0-2.3,0.4-4.5,1.3-6.5c0.9-2,2-3.8,3.5-5.3c1.5-1.5,3.2-2.6,5.1-3.5c1.9-0.8,4-1.2,6.2-1.2c3.8,0,6.8,1,9.1,2.9
		C299.2,115,300.4,117.9,300.4,121.9z"/>
	<path class="st0" d="M433.6,258.4c-7.5,4.8-13.9,8.5-19,10.9c-5.1,2.4-8.8,3.6-11.1,3.6c-2.8,0-5.1-1.8-6.9-5.3
		c-1.7-3.5-2.9-9.2-3.6-17.1c-3.3,3.6-6.5,6.8-9.5,9.5c-3,2.8-6.1,5.1-9.2,7c-3.2,1.9-6.4,3.4-9.9,4.3c-3.4,1-7.1,1.5-11.2,1.5
		c-4.8,0-9.7-1.3-14.7-3.8c-5-2.5-9.5-6.2-13.6-10.9c-4.1-4.8-7.4-10.6-10-17.4c-2.6-6.9-3.9-14.6-3.9-23.3c0-4.8,0.6-9.5,1.9-14.3
		c1.2-4.8,3.1-9.4,5.5-13.9c2.4-4.5,5.3-8.7,8.8-12.6c3.5-3.9,7.3-7.3,11.6-10.2c4.3-2.9,9-5.2,14-6.8c5.1-1.7,10.4-2.5,16.1-2.5
		c3.8,0,7.6,0.4,11.4,1.3c3.8,0.9,7.8,2.8,12.2,5.8v-42.7c0-4.3-0.1-7.7-0.3-10.2c-0.2-2.5-0.8-4.5-1.9-5.8
		c-1.1-1.4-2.8-2.3-5.1-2.8c-2.3-0.5-5.6-0.9-9.9-1.2v-5.7c7.4-0.9,14-2,20-3.4c5.9-1.4,11-2.8,15.2-4.2l4,3.7v146.1
		c0,2.7,0.1,5.1,0.2,7c0.1,1.9,0.3,3.5,0.6,4.8c0.2,1.3,0.5,2.3,0.8,3.1c0.3,0.8,0.7,1.4,1.2,1.9c0.4,0.4,0.9,0.7,1.5,0.8
		c0.6,0.1,1.5,0.1,2.6-0.1c1.1-0.2,2.4-0.5,4-1c1.6-0.5,3.6-1.2,5.9-2.1L433.6,258.4z M392.7,238.6v-53.7c-2.8-4.5-6.5-8-11.1-10.5
		c-4.7-2.5-9.9-3.7-15.6-3.7c-4.8,0-9.2,0.9-13.2,2.6c-4,1.7-7.5,4.3-10.4,7.8c-2.9,3.5-5.2,7.9-6.8,13.2
		c-1.6,5.3-2.4,11.4-2.4,18.5c0,6.5,0.9,12.3,2.8,17.6c1.9,5.3,4.3,9.7,7.2,13.4c2.9,3.7,6.2,6.5,9.7,8.5c3.6,2,7,3,10.3,3
		c2.6,0,5.1-0.4,7.6-1.3c2.5-0.9,4.9-2.1,7.4-3.6c2.4-1.5,4.9-3.3,7.3-5.3C387.9,243,390.3,240.9,392.7,238.6z"/>
	<path class="st0" d="M512.8,194.4c0,6-1.4,11.5-4.2,16.4c-2.8,5-6.5,9.2-11,12.8c-4.5,3.6-9.8,6.3-15.7,8.3c-5.9,2-12,3-18.1,3
		h-0.7c-3.6,3-6,5.4-7.2,7.4c-1.3,1.9-1.9,3.2-1.9,3.6c0,0.9,0.4,1.7,1.1,2.5c0.7,0.8,2.2,1.6,4.3,2.4c2.1,0.8,5.2,1.5,9.1,2.3
		c3.9,0.7,9.1,1.5,15.4,2.3c9.1,1,16.6,2.4,22.5,4.3c5.9,1.8,10.6,3.9,14.1,6.3c3.5,2.4,5.9,5,7.3,7.9c1.4,2.9,2.1,5.9,2.1,9
		c0,4.1-0.8,8-2.5,11.8c-1.7,3.8-4.1,7.4-7.1,10.7c-3,3.3-6.5,6.3-10.5,9.1c-4,2.7-8.3,5.1-12.9,7c-4.6,1.9-9.4,3.5-14.5,4.6
		c-5,1.1-10,1.6-14.8,1.6c-4,0-8.1-0.3-12.3-0.8c-4.3-0.5-8.4-1.3-12.5-2.4c-4.1-1.1-8-2.5-11.7-4.2c-3.7-1.7-6.9-3.7-9.7-6.1
		c-2.8-2.4-5-5.1-6.6-8.1c-1.6-3-2.4-6.4-2.4-10.2c0-2,0.4-4.1,1.2-6.3c0.8-2.1,2.4-4.4,4.7-6.9c2.3-2.5,5.5-5.1,9.7-8
		c4.1-2.9,9.6-6.1,16.3-9.6c-5-1.8-8.6-3.8-10.8-5.9c-2.2-2.1-3.2-4.4-3.2-6.6c0-0.7,0.3-1.6,0.8-2.8c0.5-1.2,1.5-2.6,2.9-4.2
		c1.4-1.6,3.4-3.5,5.8-5.6c2.5-2.1,5.6-4.4,9.4-7c-4.2-1.2-8.1-2.8-11.6-4.9c-3.5-2.1-6.5-4.6-8.9-7.5c-2.5-2.9-4.4-6.2-5.8-9.9
		c-1.4-3.7-2.1-7.6-2.1-11.9c0-5.7,1.4-11.1,4.1-16.2c2.8-5.1,6.4-9.6,10.9-13.3c4.5-3.8,9.7-6.8,15.6-9c5.9-2.2,12-3.3,18.3-3.3
		c5.1,0,9.9,0.7,14.3,2c4.4,1.4,8.5,3.3,12.1,5.7c8-0.9,14.7-2.1,20.1-3.6c5.4-1.6,9.8-2.9,13.2-4.1l2.8,3.7c-0.9,2-1.8,4.1-2.9,6.2
		c-1,2.1-2.4,4.1-4.1,6.1c-2.9,0.5-5.9,0.9-8.8,1.2c-3,0.4-6.3,0.6-9.9,0.8c2,2.8,3.6,5.8,4.7,9.1
		C512.3,187.5,512.8,190.9,512.8,194.4z M473.7,271.4c-3.4-0.4-6.6-0.8-9.4-1.3c-2.9-0.5-5.6-1-8.2-1.5c-5,2.8-9,5.4-11.9,7.7
		c-2.9,2.3-5.1,4.4-6.6,6.2c-1.5,1.8-2.5,3.5-2.9,4.9c-0.4,1.4-0.6,2.8-0.6,4c0,3,1.1,5.9,3.2,8.6c2.1,2.7,5.1,5.1,8.8,7.1
		c3.7,2,8.1,3.7,13,4.9c4.9,1.2,10.2,1.8,15.7,1.8c5.2,0,9.9-0.7,14-2c4.2-1.3,7.7-3.1,10.5-5.4c2.8-2.3,5-5,6.6-8.1
		c1.5-3.1,2.3-6.5,2.3-10.1c0-1.9-0.5-3.8-1.5-5.5c-1-1.7-2.7-3.3-5.3-4.7c-2.6-1.4-6.1-2.7-10.5-3.9
		C486.5,273.1,480.7,272.1,473.7,271.4z M492.1,199.2c0-4.1-0.7-7.9-1.9-11.5c-1.3-3.6-3.2-6.8-5.8-9.5c-2.6-2.7-5.8-4.9-9.6-6.4
		c-3.8-1.6-8.2-2.3-13.3-2.3c-2,0-4.2,0.5-6.6,1.5c-2.4,1-4.5,2.4-6.6,4.3c-2,1.9-3.7,4.3-5,7.1c-1.3,2.8-2,6.2-2,10
		c0,4.1,0.6,7.9,1.8,11.5c1.2,3.6,3.1,6.8,5.6,9.5c2.5,2.7,5.7,4.8,9.5,6.4c3.9,1.6,8.4,2.3,13.7,2.3c2.4,0,4.7-0.5,7.1-1.4
		c2.4-0.9,4.6-2.4,6.5-4.3c1.9-1.9,3.5-4.3,4.7-7.1C491.5,206.3,492.1,203,492.1,199.2z"/>
	<path class="st0" d="M619.1,204.5c-1.5,1.6-3.6,3.1-6.4,4.6c-2.8,1.5-5.6,2.8-8.1,3.8h-61.8c0.1,5.9,0.9,11.5,2.6,16.8
		c1.6,5.3,3.9,9.8,6.8,13.7c2.9,3.9,6.5,7,10.6,9.3c4.2,2.3,8.9,3.5,14.2,3.5c2.5,0,5-0.2,7.4-0.5c2.4-0.3,5-1,7.7-2.1
		c2.8-1.1,5.8-2.6,9.2-4.6c3.4-2,7.4-4.8,12-8.2c1,0.5,2.1,1.5,3,2.8c1,1.3,1.7,2.3,2.1,2.9c-5.5,5.6-10.4,10.1-14.6,13.6
		c-4.2,3.4-8.2,6.1-12,8c-3.8,1.9-7.5,3.2-11.2,3.8c-3.7,0.6-7.7,0.9-12.1,0.9c-6.5,0-12.6-1.3-18.4-3.9c-5.8-2.6-10.9-6.3-15.3-11
		c-4.4-4.8-7.9-10.5-10.5-17.2c-2.6-6.7-3.9-14.2-3.9-22.5c0-5.2,0.6-10.3,1.8-15.3c1.2-5,2.9-9.7,5.1-14c2.2-4.4,5-8.4,8.2-12.2
		c3.3-3.7,7-7,11.2-9.8c1.9-1.3,4.1-2.6,6.5-3.7c2.4-1.2,4.8-2.2,7.4-3.1c2.6-0.9,5.2-1.6,7.8-2.2c2.7-0.5,5.2-0.8,7.7-0.8
		c5.3,0,10,0.7,14.2,2c4.2,1.3,7.9,3.1,11.1,5.4c3.2,2.3,5.9,5,8.1,8.1c2.2,3.1,4,6.4,5.5,9.9c1.4,3.5,2.5,7.1,3.1,10.9
		C618.8,197.2,619.1,200.9,619.1,204.5z M572.3,169.9c-4.1,0-7.7,0.8-11,2.3c-3.3,1.5-6.1,3.7-8.6,6.4c-2.4,2.8-4.4,6.1-6,10
		c-1.6,3.9-2.7,8.2-3.3,12.9h48.2c1.9,0,3.1-0.3,3.7-0.9c0.6-0.6,0.9-1.7,0.9-3.3c0-2.2-0.3-4.8-1-8c-0.6-3.1-1.8-6.1-3.6-9
		c-1.7-2.9-4.2-5.3-7.2-7.4C581.2,171,577.2,169.9,572.3,169.9z"/>
	<path class="st0" d="M162.2,434.3c-4.7,4.8-9.3,8.8-13.7,12.1c-4.4,3.3-8.7,5.9-13,8c-4.2,2-8.4,3.5-12.4,4.4
		c-4,0.9-8.1,1.3-12.1,1.3c-7,0-14-1.5-20.8-4.5c-6.8-3-12.9-7.3-18.2-12.9c-5.4-5.6-9.6-12.5-12.9-20.7c-3.3-8.2-4.9-17.4-4.9-27.8
		c0-11.4,1.8-21.8,5.4-31c3.6-9.3,8.5-17.2,14.8-23.8c6.2-6.6,13.5-11.6,21.8-15.2c8.3-3.6,17.2-5.3,26.6-5.3c4,0,7.9,0.3,11.5,0.9
		c3.7,0.6,7.1,1.3,10.3,2.3c3.2,1,6.1,2.1,8.7,3.4c2.6,1.3,4.9,2.7,6.8,4.2c0.4,0.4,0.3,1.3-0.4,2.7c-0.7,1.4-1.7,3-3,4.7
		c-1.2,1.8-2.5,3.5-3.8,5.2c-1.3,1.7-2.4,2.9-3.3,3.8l-5-1c-3.8-4.3-8.2-7.6-13.3-10c-5.1-2.4-10.8-3.6-17.3-3.6
		c-2.5,0-5.2,0.4-8.2,1.3c-2.9,0.9-5.8,2.2-8.7,4.1c-2.9,1.9-5.6,4.4-8.3,7.4c-2.7,3-5,6.7-7,11.1c-2,4.4-3.6,9.4-4.8,15.2
		c-1.2,5.8-1.8,12.4-1.8,19.8c0,9.4,1.4,17.5,4.1,24.5c2.8,7,6.3,12.7,10.6,17.4c4.3,4.6,9.1,8,14.5,10.3c5.3,2.2,10.6,3.4,15.7,3.4
		c2,0,4.3-0.3,7-0.9c2.7-0.6,5.6-1.5,8.8-2.8c3.2-1.3,6.6-3.1,10.3-5.3c3.7-2.2,7.5-4.9,11.5-8.1c0.4,0.2,0.8,0.6,1.2,1.1
		c0.5,0.5,0.9,1.1,1.3,1.7c0.4,0.6,0.9,1.2,1.2,1.7C161.6,433.7,161.9,434,162.2,434.3z"/>
	<path class="st0" d="M246.1,404.9c0,7.1-1.4,14-4.2,20.7c-2.8,6.6-6.6,12.5-11.3,17.6c-4.7,5.1-10.2,9.2-16.5,12.3
		c-6.3,3.1-12.9,4.6-19.9,4.6c-7.3,0-13.8-1.3-19.7-3.9c-5.9-2.6-10.9-6.1-15-10.6c-4.1-4.5-7.4-9.8-9.6-16.1
		c-2.3-6.2-3.4-13-3.4-20.2c0-4.7,0.6-9.3,1.8-13.9c1.2-4.6,3-8.9,5.2-13c2.2-4.1,4.9-7.9,8.1-11.3c3.2-3.5,6.7-6.4,10.5-9
		c3.9-2.5,8-4.5,12.5-5.9c4.4-1.4,9.1-2.1,14-2.1c7.2,0,13.7,1.3,19.5,3.9c5.8,2.6,10.8,6.1,15,10.6c4.2,4.5,7.4,9.9,9.6,16.1
		C245,390.9,246.1,397.6,246.1,404.9z M225.3,408.7c0-5.6-0.9-11-2.6-16.1c-1.7-5.1-3.9-9.6-6.7-13.5c-2.8-3.9-6-7-9.6-9.3
		c-3.6-2.3-7.3-3.4-11.1-3.4c-5.3,0-9.8,1-13.4,3.1c-3.6,2-6.4,4.8-8.6,8.4c-2.2,3.6-3.7,7.8-4.6,12.6c-0.9,4.9-1.4,10.1-1.4,15.7
		c0,5.6,0.9,11,2.7,16c1.8,5,4.2,9.4,7.1,13.2c2.9,3.8,6.1,6.8,9.7,9c3.6,2.2,7.1,3.3,10.5,3.3c5,0,9.2-0.9,12.8-2.7
		c3.5-1.8,6.4-4.4,8.7-7.8c2.3-3.3,3.9-7.5,5-12.3C224.8,420.1,225.3,414.7,225.3,408.7z"/>
	<path class="st0" d="M313.4,442.9c-8.2,5.8-15.6,10.1-22.4,12.9c-6.8,2.8-12.1,4.2-16,4.2c-2.8,0-5.4-0.5-7.9-1.6
		c-2.5-1-4.7-2.7-6.6-4.9c-1.9-2.2-3.4-5.1-4.5-8.6c-1.1-3.5-1.7-7.7-1.7-12.7v-63.8h-14l-2.7-3.3l8.7-7.9h8v-25.1l16.4-12.8l3.7,3
		v34.8h35.6l3.5,3.3c-0.7,1.1-1.5,2.2-2.5,3.4c-1,1.2-2,2.4-3.1,3.4c-1,1.1-2.1,2-3.1,2.9c-1,0.9-1.9,1.5-2.6,1.9
		c-1.8-0.9-4.5-1.7-8.1-2.5c-3.6-0.8-8.1-1.2-13.4-1.2h-6.3v54.4c0,4.1,0.2,7.5,0.7,10.2c0.4,2.7,1.1,4.9,2,6.6
		c0.9,1.7,2,2.8,3.5,3.5c1.4,0.7,3.1,1,5,1c2.6,0,5.8-0.5,9.6-1.5c3.8-1,8.6-3,14.6-5.9L313.4,442.9z"/>
	<path class="st0" d="M361.3,442.9c-8.2,5.8-15.6,10.1-22.4,12.9c-6.8,2.8-12.1,4.2-16,4.2c-2.7,0-5.4-0.5-7.9-1.6
		c-2.5-1-4.7-2.7-6.6-4.9c-1.9-2.2-3.4-5.1-4.5-8.6c-1.1-3.5-1.7-7.7-1.7-12.7v-63.8h-14l-2.7-3.3l8.7-7.9h8v-25.1l16.4-12.8l3.7,3
		v34.8h35.6l3.5,3.3c-0.7,1.1-1.5,2.2-2.5,3.4c-1,1.2-2,2.4-3.1,3.4c-1,1.1-2.1,2-3.1,2.9c-1,0.9-1.9,1.5-2.6,1.9
		c-1.8-0.9-4.5-1.7-8.1-2.5c-3.6-0.8-8.1-1.2-13.4-1.2h-6.3v54.4c0,4.1,0.2,7.5,0.7,10.2c0.4,2.7,1.1,4.9,2,6.6
		c0.9,1.7,2,2.8,3.4,3.5c1.4,0.7,3.1,1,5,1c2.6,0,5.8-0.5,9.6-1.5c3.8-1,8.6-3,14.6-5.9L361.3,442.9z"/>
	<path class="st0" d="M452.1,447c-6.3,4.2-11.9,7.4-16.9,9.7c-4.9,2.2-8.5,3.4-10.8,3.4c-2.6,0-4.7-1.6-6.4-4.8
		c-1.7-3.2-2.7-7.6-3-13.3c-3.3,3.3-6.7,6.1-10,8.3c-3.3,2.3-6.6,4.2-9.7,5.6c-3.2,1.5-6.2,2.5-9.1,3.2c-2.9,0.6-5.5,1-7.9,1
		c-2.8,0-5.7-0.5-8.5-1.3c-2.9-0.9-5.5-2.3-7.8-4.2c-2.3-1.9-4.3-4.4-5.7-7.4c-1.5-3-2.2-6.6-2.2-10.7c0-5.2,1-9.6,2.9-13.2
		c1.9-3.6,4.3-6.7,7-9.3c1.8-1.7,3.8-3.4,6.1-4.9c2.3-1.6,5.3-3.1,9.1-4.5c3.7-1.4,8.5-2.8,14.3-4.1c5.7-1.3,13-2.6,21.6-3.9v-14.2
		c0-2.4-0.3-4.5-0.8-6.6c-0.5-2-1.4-3.8-2.8-5.3c-1.3-1.5-3.1-2.6-5.3-3.4c-2.2-0.8-5-1.2-8.4-1.1c-2.2,0-4.4,0.4-6.5,1.1
		c-2.1,0.7-3.9,1.7-5.6,2.9c-1.6,1.2-2.9,2.7-3.8,4.5c-0.9,1.8-1.2,3.7-1,5.8c0.1,0.4-0.4,0.9-1.3,1.5c-0.9,0.6-2.1,1.1-3.6,1.7
		c-1.4,0.6-3,1.1-4.8,1.6c-1.7,0.5-3.5,0.9-5.1,1.3c-1.7,0.4-3.2,0.6-4.6,0.8c-1.4,0.2-2.4,0.2-2.9,0.1l-1.8-4.7
		c1.7-3.8,4.4-7.4,8-10.8c3.6-3.4,7.8-6.4,12.5-9c4.7-2.6,9.7-4.6,15-6.2c5.3-1.6,10.6-2.3,15.8-2.3c8.8,0,15.5,2.2,20,6.5
		c4.5,4.4,6.8,10.2,6.8,17.6v57.5c0,3,0.4,5.2,1.2,6.4c0.8,1.3,1.9,1.9,3.2,1.9c1,0,2.3-0.2,3.9-0.5c1.6-0.3,3.8-1.1,6.8-2.4
		L452.1,447z M387.1,444.5c3.9,0,8.1-1,12.6-2.9c4.6-2,9.7-5.3,15.3-9.9v-26.3c-5.6,0.9-10.3,1.7-14,2.6c-3.7,0.8-6.8,1.7-9.2,2.6
		c-2.4,0.9-4.4,1.8-5.8,2.8c-1.4,1-2.7,2-3.8,3.1c-1.9,1.9-3.5,4.1-4.7,6.4c-1.2,2.4-1.8,5.1-1.8,8.3c0,2.7,0.4,4.9,1.2,6.6
		c0.8,1.7,1.8,3.1,3,4.1c1.2,1,2.4,1.7,3.8,2C385,444.4,386.1,444.5,387.1,444.5z"/>
	<path class="st0" d="M525.1,388.2c0,5.5-1.3,10.5-3.8,15c-2.6,4.5-5.9,8.4-10.1,11.7c-4.2,3.2-8.9,5.8-14.4,7.6
		c-5.4,1.8-10.9,2.7-16.6,2.7h-0.7c-3.3,2.7-5.5,5-6.6,6.7c-1.2,1.8-1.7,2.9-1.7,3.3c0,0.8,0.3,1.5,1,2.3c0.7,0.7,2,1.5,4,2.2
		c2,0.7,4.8,1.4,8.3,2.1c3.6,0.7,8.3,1.4,14.1,2.1c8.3,0.9,15.2,2.2,20.6,3.9c5.4,1.7,9.7,3.6,12.9,5.8c3.2,2.2,5.4,4.6,6.7,7.2
		c1.3,2.6,1.9,5.4,1.9,8.2c0,3.7-0.8,7.3-2.3,10.8c-1.6,3.5-3.7,6.8-6.5,9.8c-2.7,3-5.9,5.8-9.6,8.3c-3.7,2.5-7.6,4.6-11.9,6.4
		c-4.2,1.8-8.6,3.2-13.2,4.2c-4.6,1-9.1,1.5-13.6,1.5c-3.6,0-7.4-0.2-11.3-0.7c-3.9-0.5-7.7-1.2-11.5-2.2c-3.7-1-7.3-2.3-10.7-3.8
		c-3.4-1.5-6.3-3.4-8.9-5.6c-2.6-2.2-4.6-4.6-6.1-7.4c-1.5-2.7-2.2-5.9-2.2-9.4c0-1.9,0.4-3.8,1.1-5.7c0.7-2,2.2-4.1,4.3-6.3
		c2.1-2.3,5.1-4.7,8.8-7.3c3.8-2.6,8.8-5.6,14.9-8.8c-4.6-1.6-7.9-3.4-9.8-5.4c-2-2-2.9-4-2.9-6c0-0.6,0.2-1.5,0.7-2.6
		c0.5-1.1,1.4-2.4,2.7-3.9c1.3-1.5,3.1-3.2,5.3-5.1c2.3-1.9,5.1-4,8.6-6.4c-3.9-1.1-7.4-2.6-10.6-4.4c-3.2-1.9-5.9-4.2-8.2-6.9
		c-2.3-2.7-4-5.7-5.3-9c-1.3-3.4-1.9-7-1.9-10.9c0-5.2,1.3-10.2,3.8-14.8c2.5-4.7,5.9-8.7,10-12.2c4.2-3.5,8.9-6.2,14.3-8.2
		c5.4-2,11-3.1,16.8-3.1c4.7,0,9,0.6,13.1,1.9c4,1.3,7.7,3,11.1,5.2c7.3-0.8,13.5-1.9,18.4-3.3c4.9-1.4,9-2.7,12.1-3.7l2.6,3.4
		c-0.8,1.9-1.7,3.7-2.6,5.7c-0.9,1.9-2.2,3.8-3.7,5.6c-2.7,0.4-5.4,0.8-8.1,1.1c-2.7,0.3-5.7,0.6-9.1,0.7c1.9,2.6,3.3,5.4,4.3,8.4
		C524.6,381.9,525.1,385,525.1,388.2z M489.3,458.7c-3.1-0.3-6-0.7-8.6-1.2c-2.6-0.4-5.1-0.9-7.5-1.4c-4.6,2.6-8.2,4.9-10.9,7
		c-2.7,2.1-4.7,4-6.1,5.7c-1.4,1.7-2.3,3.2-2.6,4.5c-0.4,1.3-0.6,2.6-0.6,3.7c0,2.8,1,5.4,2.9,7.9c2,2.5,4.7,4.7,8.1,6.5
		c3.4,1.9,7.4,3.3,11.9,4.4c4.5,1.1,9.3,1.7,14.4,1.7c4.8,0,9-0.6,12.9-1.8c3.8-1.2,7-2.9,9.6-4.9c2.6-2.1,4.6-4.5,6-7.4
		c1.4-2.9,2.1-5.9,2.1-9.2c0-1.8-0.4-3.5-1.3-5c-0.9-1.6-2.5-3-4.8-4.3c-2.3-1.3-5.5-2.5-9.6-3.5C501,460.3,495.7,459.4,489.3,458.7
		z M506.2,392.6c0-3.7-0.6-7.2-1.8-10.5c-1.2-3.3-3-6.2-5.3-8.7c-2.4-2.5-5.3-4.5-8.8-5.9c-3.5-1.4-7.5-2.1-12.1-2.1
		c-1.9,0-3.9,0.4-6,1.3c-2.2,0.9-4.2,2.2-6,4c-1.9,1.7-3.4,3.9-4.6,6.5c-1.2,2.6-1.8,5.7-1.8,9.2c0,3.7,0.6,7.2,1.7,10.5
		c1.1,3.3,2.8,6.2,5.1,8.7c2.3,2.5,5.2,4.4,8.7,5.8c3.5,1.4,7.7,2.1,12.5,2.1c2.1,0,4.3-0.4,6.5-1.3c2.2-0.9,4.2-2.2,6-3.9
		c1.8-1.7,3.2-3.9,4.3-6.5C505.6,399.2,506.2,396.1,506.2,392.6z"/>
	<path class="st0" d="M618.9,397.4c-1.3,1.4-3.3,2.8-5.9,4.2c-2.6,1.4-5.1,2.6-7.5,3.5H549c0.1,5.4,0.8,10.5,2.3,15.4
		c1.5,4.8,3.6,9,6.2,12.6c2.7,3.6,5.9,6.4,9.7,8.5c3.8,2.1,8.1,3.2,13,3.2c2.3,0,4.5-0.1,6.7-0.4c2.2-0.3,4.5-0.9,7.1-1.9
		c2.5-1,5.4-2.4,8.5-4.2c3.1-1.9,6.8-4.4,11-7.5c1,0.5,1.9,1.4,2.8,2.6c0.9,1.2,1.5,2.1,1.9,2.7c-5,5.1-9.5,9.3-13.4,12.4
		c-3.9,3.1-7.5,5.6-11,7.3c-3.4,1.8-6.9,2.9-10.2,3.5c-3.4,0.6-7.1,0.9-11.1,0.9c-5.9,0-11.6-1.2-16.9-3.6c-5.3-2.4-10-5.8-14-10.1
		c-4-4.4-7.2-9.6-9.6-15.7c-2.4-6.1-3.6-13-3.6-20.6c0-4.8,0.5-9.5,1.6-14c1.1-4.6,2.6-8.9,4.7-12.8c2-4,4.6-7.7,7.5-11.1
		c3-3.4,6.4-6.4,10.2-9c1.8-1.2,3.7-2.4,5.9-3.4c2.1-1.1,4.4-2,6.7-2.8c2.3-0.8,4.7-1.5,7.2-2c2.4-0.5,4.8-0.8,7-0.8
		c4.8,0,9.2,0.6,13,1.8c3.9,1.2,7.3,2.9,10.2,5c2.9,2.1,5.4,4.6,7.5,7.4c2,2.9,3.7,5.9,5,9.1c1.3,3.2,2.3,6.5,2.8,10
		C618.6,390.8,618.9,394.1,618.9,397.4z M576.1,365.8c-3.7,0-7.1,0.7-10.1,2.1c-3,1.4-5.6,3.4-7.8,5.9c-2.2,2.5-4.1,5.6-5.5,9.2
		c-1.5,3.6-2.5,7.5-3.1,11.8h44.1c1.7,0,2.8-0.3,3.4-0.8c0.6-0.5,0.8-1.5,0.8-3c0-2-0.3-4.4-0.9-7.3c-0.6-2.8-1.7-5.6-3.3-8.2
		c-1.6-2.7-3.8-4.9-6.6-6.7C584.3,366.8,580.6,365.8,576.1,365.8z"/>
	<rect x="49.1" y="296.2" class="st0" width="349.5" height="10.3"/>
	<rect x="542.8" y="296.2" class="st0" width="76.3" height="10.3"/>
</g>
</svg>
